# Blender v2.80 (sub 43) OBJ File: ''
# www.blender.org
mtllib floor.mtl
o Cube_Cube.002
v -10.000000 -3.014864 10.000000
v -10.000000 -1.014864 10.000000
v -10.000000 -3.014864 -10.000000
v -10.000000 -1.014864 -10.000000
v 10.000000 -3.014864 10.000000
v 10.000000 -1.014864 10.000000
v 10.000000 -3.014864 -10.000000
v 10.000000 -1.014864 -10.000000
v -11.632786 -3.014864 -12.215452
v -11.632786 -3.014864 12.215452
v -11.632786 -1.014864 12.215452
v -11.632786 -1.014864 -12.215452
v 11.632786 -3.014864 -12.215452
v 11.632786 -1.014864 -12.215452
v 11.632786 -3.014864 12.215452
v 11.632786 -1.014864 12.215452
v -11.632786 -0.591261 -12.215452
v -11.200213 -0.591261 -11.515814
v -11.200213 -0.591261 11.515814
v 11.200213 -0.591261 -11.515814
v 11.632786 -0.591261 -12.215452
v 11.200213 -0.591261 11.515814
v -11.632786 -0.591261 12.215452
v 11.632786 -0.591261 12.215452
vt 2.949185 -0.018742
vt -1.949185 -0.018742
vt -2.320436 1.018742
vt 3.320436 1.018742
vt -3.199318 -3.199318
vt 4.199318 -3.199318
vt 4.803337 -4.018884
vt -3.803337 -4.018884
vt -3.803337 2.284276
vt 4.803337 2.284276
vt 4.803337 3.851322
vt -3.803337 3.851322
vt 4.199318 4.199318
vt 4.803337 5.018884
vt -3.199318 4.199318
vt 4.199318 4.199318
vt -3.199318 4.199318
vt -3.199318 -3.199318
vt 4.199318 -3.199318
vt -4.018884 -5.114359
vt -4.018884 2.284276
vt 5.018884 2.284276
vt 5.018884 -5.114359
vt -3.803337 -5.114359
vt -3.803337 2.284276
vt 4.803337 2.284276
vt 4.803337 -5.114359
vt 5.018884 -5.114359
vt 5.018884 2.284276
vt -4.018884 2.284276
vt -4.018884 -5.114359
vt 4.803337 -5.114359
vt -3.803337 -5.114359
vt -3.803337 5.018884
vt -4.018884 3.851322
vt 5.018884 3.851322
vt -1.949185 -0.018742
vt 3.243140 1.018742
vt -2.243140 1.018742
vt 4.643315 4.760066
vt 4.643315 -3.760066
vt 4.803337 -4.018884
vt 4.803337 5.018884
vt -3.643315 4.760066
vt -3.803337 5.018884
vt -3.643315 -3.760066
vt -3.803337 -4.018884
vt -3.803337 3.851322
vt 4.803337 3.851322
vt -1.949185 -0.018742
vt 2.949185 -0.018742
vt 3.320436 1.018742
vt -2.320436 1.018742
vt 2.949185 -0.018742
vt -2.243140 1.018742
vt 3.243140 1.018742
vt 5.018884 3.851322
vt -4.018884 3.851322
vn -0.3328 0.9430 0.0000
vn 0.0000 -1.0000 0.0000
vn 0.0000 0.0000 1.0000
vn 0.0000 1.0000 0.0000
vn -1.0000 0.0000 0.0000
vn 0.0000 0.0000 -1.0000
vn 1.0000 0.0000 0.0000
vn 0.0000 0.9631 0.2691
vn 0.3328 0.9430 0.0000
vn 0.0000 0.9631 -0.2691
usemtl Material
s off
f 8/1/1 6/2/1 22/3/1 20/4/1
f 1/5/2 5/6/2 15/7/2 10/8/2
f 11/9/3 16/10/3 24/11/3 23/12/3
f 5/6/2 7/13/2 13/14/2 15/7/2
f 3/15/2 7/13/2 5/6/2 1/5/2
f 8/16/4 4/17/4 2/18/4 6/19/4
f 10/20/5 11/21/5 12/22/5 9/23/5
f 9/24/6 12/25/6 14/26/6 13/27/6
f 13/28/7 14/29/7 16/30/7 15/31/7
f 15/32/3 16/10/3 11/9/3 10/33/3
f 7/13/2 3/15/2 9/34/2 13/14/2
f 12/22/5 11/21/5 23/35/5 17/36/5
f 4/37/8 8/1/8 20/38/8 18/39/8
f 3/15/2 1/5/2 10/8/2 9/34/2
f 20/40/4 22/41/4 24/42/4 21/43/4
f 18/44/4 20/40/4 21/43/4 17/45/4
f 19/46/4 18/44/4 17/45/4 23/47/4
f 22/41/4 19/46/4 23/47/4 24/42/4
f 14/26/6 12/25/6 17/48/6 21/49/6
f 2/50/9 4/51/9 18/52/9 19/53/9
f 6/54/10 2/50/10 19/55/10 22/56/10
f 16/30/7 14/29/7 21/57/7 24/58/7
